{
    "asset": {
        "version": "2.0",
        "generator": "goxel"
    },
    "buffers": [
        {
            "byteLength": 171248,
            "uri": "data:application/octet-stream;base64,"
        },
        {
            "byteLength": 18348,
            "uri": "data:application/octet-stream;base64,"
        },
        {
            "byteLength": 76272,
            "uri": "data:application/octet-stream;base64,"
        },
        {
            "byteLength": 8172,
            "uri": "data:application/octet-stream;base64,"
        },
        {
            "byteLength": 208432,
            "uri": "data:application/octet-stream;base64,"
        },
        {
            "byteLength": 22332,
            "uri": "data:application/octet-stream;base64,"
        },
        {
            "byteLength": 170128,
            "uri": "data:application/octet-stream;base64,"
        },
        {
            "byteLength": 18228,
            "uri": "data:application/octet-stream;base64,"
        },
        {
            "byteLength": 131824,
            "uri": "data:application/octet-stream;base64,"
        },
        {
            "byteLength": 14124,
            "uri": "data:application/octet-stream;base64,"
        },
        {
            "byteLength": 148624,
            "uri": "data:application/octet-stream;base64,"
        },
        {
            "byteLength": 15924,
            "uri": "data:application/octet-stream;base64,"
        },
        {
            "byteLength": 144480,
            "uri": "data:application/octet-stream;base64,"
        },
        {
            "byteLength": 15480,
            "uri": "data:application/octet-stream;base64,"
        },
        {
            "byteLength": 60928,
            "uri": "data:application/octet-stream;base64,"
        },
        {
            "byteLength": 6528,
            "uri": "data:application/octet-stream;base64,"
        }
    ],
    "bufferViews": [
        {
            "buffer": 1,
            "byteLength": 18348,
            "target": 34963
        },
        {
            "buffer": 0,
            "byteLength": 171248,
            "byteStride": 28,
            "target": 34962
        },
        {
            "buffer": 3,
            "byteLength": 8172,
            "target": 34963
        },
        {
            "buffer": 2,
            "byteLength": 76272,
            "byteStride": 28,
            "target": 34962
        },
        {
            "buffer": 5,
            "byteLength": 22332,
            "target": 34963
        },
        {
            "buffer": 4,
            "byteLength": 208432,
            "byteStride": 28,
            "target": 34962
        },
        {
            "buffer": 7,
            "byteLength": 18228,
            "target": 34963
        },
        {
            "buffer": 6,
            "byteLength": 170128,
            "byteStride": 28,
            "target": 34962
        },
        {
            "buffer": 9,
            "byteLength": 14124,
            "target": 34963
        },
        {
            "buffer": 8,
            "byteLength": 131824,
            "byteStride": 28,
            "target": 34962
        },
        {
            "buffer": 11,
            "byteLength": 15924,
            "target": 34963
        },
        {
            "buffer": 10,
            "byteLength": 148624,
            "byteStride": 28,
            "target": 34962
        },
        {
            "buffer": 13,
            "byteLength": 15480,
            "target": 34963
        },
        {
            "buffer": 12,
            "byteLength": 144480,
            "byteStride": 28,
            "target": 34962
        },
        {
            "buffer": 15,
            "byteLength": 6528,
            "target": 34963
        },
        {
            "buffer": 14,
            "byteLength": 60928,
            "byteStride": 28,
            "target": 34962
        }
    ],
    "meshes": [
        {
            "primitives": [
                {
                    "attributes": {
                        "POSITION": 1,
                        "COLOR_0": 2,
                        "NORMAL": 3
                    },
                    "indices": 0
                }
            ]
        },
        {
            "primitives": [
                {
                    "attributes": {
                        "POSITION": 5,
                        "COLOR_0": 6,
                        "NORMAL": 7
                    },
                    "indices": 4
                }
            ]
        },
        {
            "primitives": [
                {
                    "attributes": {
                        "POSITION": 9,
                        "COLOR_0": 10,
                        "NORMAL": 11
                    },
                    "indices": 8
                }
            ]
        },
        {
            "primitives": [
                {
                    "attributes": {
                        "POSITION": 13,
                        "COLOR_0": 14,
                        "NORMAL": 15
                    },
                    "indices": 12
                }
            ]
        },
        {
            "primitives": [
                {
                    "attributes": {
                        "POSITION": 17,
                        "COLOR_0": 18,
                        "NORMAL": 19
                    },
                    "indices": 16
                }
            ]
        },
        {
            "primitives": [
                {
                    "attributes": {
                        "POSITION": 21,
                        "COLOR_0": 22,
                        "NORMAL": 23
                    },
                    "indices": 20
                }
            ]
        },
        {
            "primitives": [
                {
                    "attributes": {
                        "POSITION": 25,
                        "COLOR_0": 26,
                        "NORMAL": 27
                    },
                    "indices": 24
                }
            ]
        },
        {
            "primitives": [
                {
                    "attributes": {
                        "POSITION": 29,
                        "COLOR_0": 30,
                        "NORMAL": 31
                    },
                    "indices": 28
                }
            ]
        }
    ],
    "accessors": [
        {
            "bufferView": 0,
            "componentType": 5123,
            "count": 9174,
            "type": "SCALAR"
        },
        {
            "bufferView": 1,
            "componentType": 5126,
            "byteOffset": 0,
            "type": "VEC3",
            "count": 6116,
            "min": [
                0.000000000000,
                0.000000000000,
                0.000000000000
            ],
            "max": [
                16.000000000000,
                16.000000000000,
                16.000000000000
            ]
        },
        {
            "bufferView": 1,
            "componentType": 5121,
            "byteOffset": 24,
            "type": "VEC4",
            "count": 6116,
            "normalized": true
        },
        {
            "bufferView": 1,
            "componentType": 5126,
            "byteOffset": 12,
            "type": "VEC3",
            "count": 6116
        },
        {
            "bufferView": 2,
            "componentType": 5123,
            "count": 4086,
            "type": "SCALAR"
        },
        {
            "bufferView": 3,
            "componentType": 5126,
            "byteOffset": 0,
            "type": "VEC3",
            "count": 2724,
            "min": [
                0.000000000000,
                0.000000000000,
                0.000000000000
            ],
            "max": [
                16.000000000000,
                16.000000000000,
                11.000000000000
            ]
        },
        {
            "bufferView": 3,
            "componentType": 5121,
            "byteOffset": 24,
            "type": "VEC4",
            "count": 2724,
            "normalized": true
        },
        {
            "bufferView": 3,
            "componentType": 5126,
            "byteOffset": 12,
            "type": "VEC3",
            "count": 2724
        },
        {
            "bufferView": 4,
            "componentType": 5123,
            "count": 11166,
            "type": "SCALAR"
        },
        {
            "bufferView": 5,
            "componentType": 5126,
            "byteOffset": 0,
            "type": "VEC3",
            "count": 7444,
            "min": [
                0.000000000000,
                0.000000000000,
                0.000000000000
            ],
            "max": [
                16.000000000000,
                16.000000000000,
                16.000000000000
            ]
        },
        {
            "bufferView": 5,
            "componentType": 5121,
            "byteOffset": 24,
            "type": "VEC4",
            "count": 7444,
            "normalized": true
        },
        {
            "bufferView": 5,
            "componentType": 5126,
            "byteOffset": 12,
            "type": "VEC3",
            "count": 7444
        },
        {
            "bufferView": 6,
            "componentType": 5123,
            "count": 9114,
            "type": "SCALAR"
        },
        {
            "bufferView": 7,
            "componentType": 5126,
            "byteOffset": 0,
            "type": "VEC3",
            "count": 6076,
            "min": [
                0.000000000000,
                0.000000000000,
                0.000000000000
            ],
            "max": [
                16.000000000000,
                16.000000000000,
                16.000000000000
            ]
        },
        {
            "bufferView": 7,
            "componentType": 5121,
            "byteOffset": 24,
            "type": "VEC4",
            "count": 6076,
            "normalized": true
        },
        {
            "bufferView": 7,
            "componentType": 5126,
            "byteOffset": 12,
            "type": "VEC3",
            "count": 6076
        },
        {
            "bufferView": 8,
            "componentType": 5123,
            "count": 7062,
            "type": "SCALAR"
        },
        {
            "bufferView": 9,
            "componentType": 5126,
            "byteOffset": 0,
            "type": "VEC3",
            "count": 4708,
            "min": [
                0.000000000000,
                0.000000000000,
                0.000000000000
            ],
            "max": [
                16.000000000000,
                16.000000000000,
                16.000000000000
            ]
        },
        {
            "bufferView": 9,
            "componentType": 5121,
            "byteOffset": 24,
            "type": "VEC4",
            "count": 4708,
            "normalized": true
        },
        {
            "bufferView": 9,
            "componentType": 5126,
            "byteOffset": 12,
            "type": "VEC3",
            "count": 4708
        },
        {
            "bufferView": 10,
            "componentType": 5123,
            "count": 7962,
            "type": "SCALAR"
        },
        {
            "bufferView": 11,
            "componentType": 5126,
            "byteOffset": 0,
            "type": "VEC3",
            "count": 5308,
            "min": [
                0.000000000000,
                0.000000000000,
                0.000000000000
            ],
            "max": [
                16.000000000000,
                16.000000000000,
                16.000000000000
            ]
        },
        {
            "bufferView": 11,
            "componentType": 5121,
            "byteOffset": 24,
            "type": "VEC4",
            "count": 5308,
            "normalized": true
        },
        {
            "bufferView": 11,
            "componentType": 5126,
            "byteOffset": 12,
            "type": "VEC3",
            "count": 5308
        },
        {
            "bufferView": 12,
            "componentType": 5123,
            "count": 7740,
            "type": "SCALAR"
        },
        {
            "bufferView": 13,
            "componentType": 5126,
            "byteOffset": 0,
            "type": "VEC3",
            "count": 5160,
            "min": [
                0.000000000000,
                0.000000000000,
                0.000000000000
            ],
            "max": [
                16.000000000000,
                16.000000000000,
                16.000000000000
            ]
        },
        {
            "bufferView": 13,
            "componentType": 5121,
            "byteOffset": 24,
            "type": "VEC4",
            "count": 5160,
            "normalized": true
        },
        {
            "bufferView": 13,
            "componentType": 5126,
            "byteOffset": 12,
            "type": "VEC3",
            "count": 5160
        },
        {
            "bufferView": 14,
            "componentType": 5123,
            "count": 3264,
            "type": "SCALAR"
        },
        {
            "bufferView": 15,
            "componentType": 5126,
            "byteOffset": 0,
            "type": "VEC3",
            "count": 2176,
            "min": [
                0.000000000000,
                0.000000000000,
                15.000000000000
            ],
            "max": [
                16.000000000000,
                16.000000000000,
                16.000000000000
            ]
        },
        {
            "bufferView": 15,
            "componentType": 5121,
            "byteOffset": 24,
            "type": "VEC4",
            "count": 2176,
            "normalized": true
        },
        {
            "bufferView": 15,
            "componentType": 5126,
            "byteOffset": 12,
            "type": "VEC3",
            "count": 2176
        }
    ],
    "nodes": [
        {
            "matrix": [
                1,
                0,
                0,
                0,
                0,
                0,
                -1,
                0,
                0,
                1,
                0,
                0,
                0,
                0,
                0,
                1
            ],
            "children": [
                1,
                2,
                3,
                4,
                5,
                6,
                7,
                8
            ]
        },
        {
            "translation": [
                -16,
                -16,
                0
            ],
            "mesh": 0
        },
        {
            "translation": [
                0,
                -16,
                0
            ],
            "mesh": 1
        },
        {
            "translation": [
                -16,
                0,
                0
            ],
            "mesh": 2
        },
        {
            "translation": [
                0,
                0,
                0
            ],
            "mesh": 3
        },
        {
            "translation": [
                0,
                0,
                16
            ],
            "mesh": 4
        },
        {
            "translation": [
                -16,
                0,
                16
            ],
            "mesh": 5
        },
        {
            "translation": [
                -16,
                -16,
                16
            ],
            "mesh": 6
        },
        {
            "translation": [
                0,
                -16,
                16
            ],
            "mesh": 7
        }
    ],
    "scenes": [
        {
            "nodes": [
                0
            ]
        }
    ]
}