<svg width="154" height="48" viewBox="0 0 154 48" fill="none" xmlns="http://www.w3.org/2000/svg">
<path d="M29.1651 40.4C29.1651 42.24 29.4451 43.58 30.0051 44.42C30.5651 45.26 31.5651 45.68 33.0051 45.68V46.94C31.7651 46.82 30.5251 46.76 29.2851 46.76C25.7251 46.76 22.8051 47.04 20.5251 47.6V42.44C19.1651 46.04 16.5651 47.84 12.7251 47.84C8.96508 47.84 5.96508 46.48 3.72508 43.76C1.52508 41 0.445078 36.86 0.485078 31.34C0.485078 27.82 1.04508 24.86 2.16508 22.46C3.32508 20.02 4.90508 18.2 6.90508 17C8.94508 15.76 11.2651 15.14 13.8651 15.14C16.7851 15.14 19.0051 15.9 20.5251 17.42V7.22C20.5251 5.38 20.2251 4.04 19.6251 3.2C19.0651 2.36 18.0851 1.94 16.6851 1.94V0.679999C17.9651 0.799998 19.2051 0.859997 20.4051 0.859997C23.8851 0.859997 26.8051 0.579997 29.1651 0.0199969V40.4ZM15.1851 45.26C16.5051 45.26 17.6651 44.78 18.6651 43.82C19.7051 42.86 20.3251 41.56 20.5251 39.92V18.92C19.5251 17.56 18.0651 16.88 16.1451 16.88C14.0251 16.88 12.3851 18.1 11.2251 20.54C10.0651 22.98 9.50508 26.62 9.54508 31.46C9.50508 36.34 9.96508 39.86 10.9251 42.02C11.9251 44.18 13.3451 45.26 15.1851 45.26ZM59.3845 40.46C59.3845 42.3 59.6645 43.64 60.2245 44.48C60.8245 45.32 61.8245 45.74 63.2245 45.74V47C61.9845 46.88 60.7445 46.82 59.5045 46.82C56.0245 46.82 53.1045 47.1 50.7445 47.66V42.26C48.9045 45.98 45.6845 47.84 41.0845 47.84C38.0845 47.84 35.9045 47.06 34.5445 45.5C33.9045 44.74 33.4245 43.76 33.1045 42.56C32.8245 41.32 32.6845 39.7 32.6845 37.7V22.52C32.6845 20.68 32.3845 19.34 31.7845 18.5C31.2245 17.66 30.2445 17.24 28.8445 17.24V15.98C30.0845 16.1 31.3245 16.16 32.5645 16.16C36.0445 16.16 38.9645 15.88 41.3245 15.32V40.16C41.3245 41.84 41.5645 43.1 42.0445 43.94C42.5645 44.78 43.5245 45.2 44.9245 45.2C46.5245 45.2 47.8845 44.54 49.0045 43.22C50.1645 41.86 50.7445 40.2 50.7445 38.24V22.52C50.7445 20.68 50.4445 19.34 49.8445 18.5C49.2845 17.66 48.3045 17.24 46.9045 17.24V15.98C48.1845 16.1 49.4245 16.16 50.6245 16.16C54.1045 16.16 57.0245 15.88 59.3845 15.32V40.46ZM89.4112 40.4C89.4112 42.24 89.6912 43.58 90.2512 44.42C90.8112 45.26 91.8112 45.68 93.2512 45.68V46.94C92.0112 46.82 90.7712 46.76 89.5312 46.76C85.9712 46.76 83.0512 47.04 80.7712 47.6V42.44C79.4112 46.04 76.8112 47.84 72.9712 47.84C69.2112 47.84 66.2112 46.48 63.9712 43.76C61.7712 41 60.6912 36.86 60.7312 31.34C60.7312 27.82 61.2912 24.86 62.4112 22.46C63.5712 20.02 65.1512 18.2 67.1512 17C69.1912 15.76 71.5112 15.14 74.1112 15.14C77.0312 15.14 79.2512 15.9 80.7712 17.42V7.22C80.7712 5.38 80.4712 4.04 79.8712 3.2C79.3112 2.36 78.3312 1.94 76.9312 1.94V0.679999C78.2112 0.799998 79.4512 0.859997 80.6512 0.859997C84.1312 0.859997 87.0512 0.579997 89.4112 0.0199969V40.4ZM75.4312 45.26C76.7512 45.26 77.9112 44.78 78.9112 43.82C79.9512 42.86 80.5712 41.56 80.7712 39.92V18.92C79.7712 17.56 78.3112 16.88 76.3912 16.88C74.2712 16.88 72.6312 18.1 71.4712 20.54C70.3112 22.98 69.7512 26.62 69.7912 31.46C69.7512 36.34 70.2112 39.86 71.1712 42.02C72.1712 44.18 73.5912 45.26 75.4312 45.26ZM119.631 40.46C119.631 42.3 119.911 43.64 120.471 44.48C121.071 45.32 122.071 45.74 123.471 45.74V47C122.231 46.88 120.991 46.82 119.751 46.82C116.271 46.82 113.351 47.1 110.991 47.66V42.26C109.151 45.98 105.931 47.84 101.331 47.84C98.3305 47.84 96.1505 47.06 94.7905 45.5C94.1505 44.74 93.6705 43.76 93.3505 42.56C93.0705 41.32 92.9305 39.7 92.9305 37.7V22.52C92.9305 20.68 92.6305 19.34 92.0305 18.5C91.4705 17.66 90.4905 17.24 89.0905 17.24V15.98C90.3305 16.1 91.5705 16.16 92.8105 16.16C96.2905 16.16 99.2105 15.88 101.571 15.32V40.16C101.571 41.84 101.811 43.1 102.291 43.94C102.811 44.78 103.771 45.2 105.171 45.2C106.771 45.2 108.131 44.54 109.251 43.22C110.411 41.86 110.991 40.2 110.991 38.24V22.52C110.991 20.68 110.691 19.34 110.091 18.5C109.531 17.66 108.551 17.24 107.151 17.24V15.98C108.431 16.1 109.671 16.16 110.871 16.16C114.351 16.16 117.271 15.88 119.631 15.32V40.46ZM150.617 42.62C151.257 43.58 151.777 44.3 152.177 44.78C152.577 45.22 153.097 45.54 153.737 45.74V47C150.537 46.84 148.437 46.76 147.437 46.76C146.117 46.76 143.537 46.84 139.697 47V45.74C140.257 45.74 140.697 45.64 141.017 45.44C141.337 45.24 141.497 44.96 141.497 44.6C141.497 44.4 141.397 44.1 141.197 43.7L135.257 32.96C134.857 32.28 134.437 31.82 133.997 31.58C133.557 31.34 132.997 31.18 132.317 31.1V41.42C132.317 43.06 132.577 44.2 133.097 44.84C133.617 45.44 134.557 45.74 135.917 45.74V47C131.917 46.84 129.317 46.76 128.117 46.76C126.757 46.76 123.997 46.84 119.837 47V45.74C121.237 45.74 122.217 45.44 122.777 44.84C123.377 44.2 123.677 43.06 123.677 41.42V7.22C123.677 5.38 123.377 4.04 122.777 3.2C122.217 2.36 121.237 1.94 119.837 1.94V0.679999C121.117 0.799998 122.357 0.859997 123.557 0.859997C127.037 0.859997 129.957 0.579997 132.317 0.0199969V29.96C133.117 29.88 133.797 29.72 134.357 29.48C134.957 29.24 135.477 28.88 135.917 28.4L140.477 23.96C141.797 22.64 142.457 21.42 142.457 20.3C142.457 19.38 142.037 18.66 141.197 18.14C140.357 17.58 139.237 17.26 137.837 17.18V15.98C140.037 16.1 142.377 16.16 144.857 16.16C148.177 16.16 150.517 16.1 151.877 15.98V17.18C149.517 17.7 147.017 19.24 144.377 21.8L140.537 25.76L150.617 42.62Z" fill="#3F3800"/>
</svg>
