<?xml version="1.0" encoding="UTF-8" standalone="no"?>
<!DOCTYPE svg PUBLIC "-//W3C//DTD SVG 1.1//EN" "http://www.w3.org/Graphics/SVG/1.1/DTD/svg11.dtd">
<svg width="100%" height="100%" viewBox="0 0 1564 1564" version="1.1" xmlns="http://www.w3.org/2000/svg" xmlns:xlink="http://www.w3.org/1999/xlink" xml:space="preserve" xmlns:serif="http://www.serif.com/" style="fill-rule:evenodd;clip-rule:evenodd;stroke-linejoin:round;stroke-miterlimit:1.41421;">
    <g id="Artboard1" transform="matrix(1,0,0,1,-707.234,-773.496)">
        <rect x="707.234" y="773.496" width="1563.44" height="1563.44" style="fill:none;"/>
        <g id="THE-COOLEST-T-SHIRTS" serif:id="THE COOLEST T-SHIRTS" transform="matrix(8.33333,0,0,8.33333,-85299.8,-63622.4)">
            <text x="10353.5px" y="7834.65px" style="font-family:'CourierNewPSMT', 'Courier New', monospace;font-size:8px;fill:rgb(3,4,4);">T<tspan x="10359.9px 10366.3px 10372.7px 10379.1px 10385.5px 10391.9px 10398.3px 10404.7px 10411.1px 10417.5px 10423.9px 10430.3px 10436.7px 10443.1px 10449.5px 10455.9px 10462.3px 10468.7px 10475.1px " y="7834.65px 7834.65px 7834.65px 7834.65px 7834.65px 7834.65px 7834.65px 7834.65px 7834.65px 7834.65px 7834.65px 7834.65px 7834.65px 7834.65px 7834.65px 7834.65px 7834.65px 7834.65px 7834.65px ">HE COOLEST T-SHIRTS</tspan></text>
        </g>
        <g id="BLUE-GORILLA" serif:id="BLUE GORILLA" transform="matrix(8.33333,0,0,8.33333,-85299.8,-63768.3)">
            <text x="10353.5px" y="7842.24px" style="font-family:'CourierNewPS-BoldMT', 'Courier New', monospace;font-weight:700;font-size:21.3px;fill:rgb(3,4,4);">BLUE GORILLA</text>
        </g>
        <g id="Icon" transform="matrix(1,0,0,1,0.234427,0.496487)">
            <path d="M750.452,1671C749.384,1671 748.315,1670.59 747.501,1669.78L726.63,1648.97C725,1647.35 725,1644.71 726.63,1643.09C728.261,1641.46 730.902,1641.46 732.532,1643.09L753.403,1663.89C755.033,1665.52 755.033,1668.15 753.403,1669.78C752.588,1670.59 751.52,1671 750.452,1671ZM792.193,1671C791.125,1671 790.056,1670.59 789.241,1669.78L726.63,1607.36C725,1605.73 725,1603.1 726.63,1601.47C728.261,1599.85 730.902,1599.85 732.532,1601.47L795.144,1663.89C796.774,1665.52 796.774,1668.15 795.144,1669.78C794.329,1670.59 793.26,1671 792.193,1671ZM833.933,1671C832.866,1671 831.797,1670.59 830.982,1669.78L726.63,1565.74C725,1564.11 725,1561.48 726.63,1559.85C728.261,1558.23 730.902,1558.23 732.532,1559.85L836.884,1663.89C838.515,1665.52 838.515,1668.15 836.884,1669.78C836.07,1670.59 835.001,1671 833.933,1671ZM875.674,1671C874.606,1671 873.538,1670.59 872.723,1669.78L726.63,1524.12C725,1522.5 725,1519.86 726.63,1518.24C728.261,1516.61 730.902,1516.61 732.532,1518.24L878.625,1663.89C880.256,1665.52 880.256,1668.15 878.625,1669.78C877.81,1670.59 876.742,1671 875.674,1671ZM917.415,1671C916.347,1671 915.279,1670.59 914.464,1669.78L726.63,1482.51C725,1480.88 725,1478.25 726.63,1476.62C728.261,1475 730.902,1475 732.532,1476.62L920.366,1663.89C921.996,1665.52 921.996,1668.15 920.366,1669.78C919.551,1670.59 918.483,1671 917.415,1671ZM917.415,1629.38C916.347,1629.38 915.279,1628.98 914.464,1628.16L768.371,1482.51C766.741,1480.88 766.741,1478.25 768.371,1476.62C770.001,1475 772.643,1475 774.273,1476.62L920.366,1622.28C921.996,1623.9 921.996,1626.54 920.366,1628.16C919.551,1628.98 918.483,1629.38 917.415,1629.38ZM917.415,1587.77C916.347,1587.77 915.279,1587.36 914.464,1586.55L810.112,1482.51C808.481,1480.88 808.481,1478.25 810.112,1476.62C811.742,1475 814.384,1475 816.014,1476.62L920.366,1580.66C921.996,1582.29 921.996,1584.92 920.366,1586.55C919.551,1587.36 918.483,1587.77 917.415,1587.77ZM917.415,1546.15C916.347,1546.15 915.279,1545.74 914.464,1544.93L851.853,1482.51C850.222,1480.88 850.222,1478.25 851.853,1476.62C853.483,1475 856.124,1475 857.755,1476.62L920.366,1539.05C921.996,1540.67 921.996,1543.31 920.366,1544.93C919.551,1545.74 918.483,1546.15 917.415,1546.15ZM917.415,1504.53C916.347,1504.53 915.279,1504.13 914.464,1503.31L893.593,1482.51C891.963,1480.88 891.963,1478.25 893.593,1476.62C895.224,1475 897.865,1475 899.496,1476.62L920.366,1497.43C921.996,1499.06 921.996,1501.69 920.366,1503.31C919.551,1504.13 918.483,1504.53 917.415,1504.53Z" style="fill:rgb(3,4,5);"/>
        </g>
    </g>
</svg>
