<svg height="512pt" viewBox="-24 0 512 512" width="512pt" xmlns="http://www.w3.org/2000/svg"><path d="m424 160c0-88.222656-71.777344-160-160-160h-40c-88.222656 0-160 71.777344-160 160v54.511719l-39.472656 102.617187c-.351563.910156-.527344 1.886719-.527344 2.871094v32c0 4.414062 3.574219 8 8 8h50.542969l14.714843 73.566406c.75 3.746094 4.03125 6.433594 7.847657 6.433594h54.894531v64c0 4.414062 3.574219 8 8 8h176c4.425781 0 8-3.585938 8-8v-68.929688l28.871094-32.078124c27.816406-30.902344 43.128906-70.824219 43.128906-112.390626zm-16 130.601562c0 37.613282-13.855469 73.71875-39.015625 101.679688l-30.929687 34.359375c-1.320313 1.480469-2.054688 3.382813-2.054688 5.359375v64h-160v-64c0-4.414062-3.574219-8-8-8h-56.34375l-14.710938-73.566406c-.753906-3.746094-4.035156-6.433594-7.839843-6.433594h-49.105469v-22.511719l39.472656-102.617187c.351563-.910156.527344-1.886719.527344-2.871094v-56c0-79.398438 64.601562-144 144-144h40c79.398438 0 144 64.601562 144 144zm0 0"/><path d="m240 64c-66.167969 0-120 53.832031-120 120 0 39.238281 19.246094 76.070312 51.496094 98.527344l9.144531-13.136719c-27.953125-19.453125-44.640625-51.382813-44.640625-85.390625 0-57.34375 46.65625-104 104-104s104 46.65625 104 104c0 33.457031-16.257812 65.078125-43.496094 84.59375l9.328125 13.007812c31.40625-22.511718 50.167969-59 50.167969-97.601562 0-66.167969-53.832031-120-120-120zm0 0"/><path d="m255.777344 116.785156c-1.28125-2.90625-4.160156-4.785156-7.328125-4.785156h-16.890625c-3.167969 0-6.046875 1.878906-7.328125 4.785156l-31.789063 72.421875c-.640625 1.472657-.832031 3.105469-.539062 4.6875l13.121094 70.105469h-5.023438c-2.257812 0-4.414062.960938-5.929688 2.632812-1.511718 1.671876-2.253906 3.910157-2.03125 6.167969l8 80c.410157 4.085938 3.847657 7.199219 7.960938 7.199219h64c4.113281 0 7.550781-3.113281 7.960938-7.199219l8-80c.222656-2.25-.511719-4.488281-2.03125-6.167969-1.523438-1.679687-3.671876-2.632812-5.929688-2.632812h-5.023438l13.128907-70.105469c.285156-1.582031.101562-3.214843-.539063-4.6875zm15.382812 163.214844-2.398437 24h-57.515625l-2.398438-24zm-6.398437 64h-49.515625l-2.398438-24h54.3125zm-16.761719-80v-64h8v-16h-32v16h8v64h-10.695312l-13.214844-70.625 28.695312-65.375h6.4375l28.699219 65.375-13.226563 70.625zm0 0"/><path d="m16 112h16v16h-16zm0 0"/><path d="m16 144h16v16h-16zm0 0"/><path d="m32 128h16v16h-16zm0 0"/><path d="m0 128h16v16h-16zm0 0"/><path d="m432 360h16v16h-16zm0 0"/><path d="m432 392h16v16h-16zm0 0"/><path d="m448 376h16v16h-16zm0 0"/><path d="m416 376h16v16h-16zm0 0"/></svg>