<?xml version="1.0" encoding="iso-8859-1"?>
<!-- Generator: Adobe Illustrator 19.0.0, SVG Export Plug-In . SVG Version: 6.00 Build 0)  -->
<svg version="1.1" id="Capa_1" xmlns="http://www.w3.org/2000/svg" xmlns:xlink="http://www.w3.org/1999/xlink" x="0px" y="0px"
	 viewBox="0 0 512.384 512.384" style="enable-background:new 0 0 512.384 512.384;" xml:space="preserve">
<g>
	<g>
		<path d="M496.384,164.192h-24c0-4.416-3.576-8-8-8h-24v-8h-16v8h-32v-8h-16v8h-24H321.4l-139.472-78.96
			c-1.2-0.68-2.56-1.04-3.944-1.04h-17.6c-4.424,0-8,3.584-8,8v96h-16c-8.824,0-16,7.176-16,16v48c0,8.824,7.176,16,16,16h16v96
			c0,4.416,3.576,8,8,8h14.4c1.36,0,2.688-0.344,3.872-1l142.68-79h23.048v40c0,8.824,7.176,16,16,16h11.056l4,8l-20.728,41.456
			l-20.856,6.952c-3.272,1.096-5.472,4.144-5.472,7.592v24c0,4.416,3.576,8,8,8h80c4.424,0,8-3.584,8-8V413.64L447.88,351
			c0.336-0.896,0.504-1.848,0.504-2.808v-64h16c4.424,0,8-3.584,8-8h24c8.824,0,16-7.176,16-16v-80
			C512.384,171.368,505.208,164.192,496.384,164.192z M152.384,212.192h-8v16h8v16h-16v-48h16V212.192z M312.384,212.192h-32v16h32
			v42.664l-80,44.296v-110.96h-16v119.824l-16,8.856v-48.68h-16v57.536l-11.672,6.464h-4.328v-96v-64v-96h7.496l8.504,4.816v171.184
			h16V106.064l16,9.056v73.072h16v-64.008l80,45.288V212.192z M344.384,268.192h-16v-96h16V268.192z M368.384,324.192h-8v-40h8
			V324.192z M432.384,308.192h-16v16h16v16h-16v16h12.456l-19.952,53.192c-0.336,0.896-0.504,1.848-0.504,2.808v8h-64V409.96
			l18.528-6.176c2.008-0.672,3.672-2.112,4.624-4.008l24-48c1.128-2.256,1.128-4.904,0-7.16l-7.152-14.312v-46.112h48V308.192z
			 M392.384,268.192v-32h32v32H392.384z M456.384,268.192h-16v-32c0-8.824-7.176-16-16-16h-32c-8.824,0-16,7.176-16,16v32h-16v-96
			h96V268.192z M496.384,260.192h-24v-80h24V260.192z"/>
	</g>
</g>
<g>
	<g>
		<rect x="248.384" y="212.192" width="16" height="16"/>
	</g>
</g>
<g>
	<g>
		<path d="M15.992,222.184c0-37.68,20.864-71.736,54.456-88.872l-7.264-14.248C24.208,138.944,0,178.464,0,222.184
			c0,43.728,24.216,83.248,63.2,103.136l7.264-14.248C36.872,293.928,15.992,259.872,15.992,222.184z"/>
	</g>
</g>
<g>
	<g>
		<path d="M70.848,222.184c0-26.672,17.944-50.208,43.648-57.224l-4.216-15.44c-32.632,8.912-55.432,38.792-55.432,72.664
			c0,33.864,22.792,63.736,55.416,72.664l4.216-15.44C88.792,272.392,70.848,248.856,70.848,222.184z"/>
	</g>
</g>
<g>
	<g>
		<rect x="80.384" y="332.192" width="16" height="16"/>
	</g>
</g>
<g>
	<g>
		<rect x="120.384" y="300.192" width="16" height="16"/>
	</g>
</g>
<g>
	<g>
		<rect x="120.384" y="124.192" width="16" height="16"/>
	</g>
</g>
<g>
	<g>
		<rect x="80.384" y="92.192" width="16" height="16"/>
	</g>
</g>
<g>
</g>
<g>
</g>
<g>
</g>
<g>
</g>
<g>
</g>
<g>
</g>
<g>
</g>
<g>
</g>
<g>
</g>
<g>
</g>
<g>
</g>
<g>
</g>
<g>
</g>
<g>
</g>
<g>
</g>
</svg>
