<?xml version="1.0" encoding="iso-8859-1"?>
<!-- Generator: Adobe Illustrator 19.0.0, SVG Export Plug-In . SVG Version: 6.00 Build 0)  -->
<svg version="1.1" id="Capa_1" xmlns="http://www.w3.org/2000/svg" xmlns:xlink="http://www.w3.org/1999/xlink" x="0px" y="0px"
	 viewBox="0 0 512 512" style="enable-background:new 0 0 512 512;" xml:space="preserve">
<g>
	<g>
		<path d="M400,40h-32V0h-16v40H160V0h-16v40h-32c-8.824,0-16,7.176-16,16v440c0,8.824,7.176,16,16,16h288c8.824,0,16-7.176,16-16
			V56C416,47.176,408.824,40,400,40z M360,80c4.416,0,8,3.592,8,8s-3.584,8-8,8c-4.416,0-8-3.592-8-8S355.584,80,360,80z M152,80
			c4.408,0,8,3.592,8,8s-3.592,8-8,8s-8-3.592-8-8S147.592,80,152,80z M112,496V56h32v9.472c-9.288,3.312-16,12.112-16,22.528
			c0,13.232,10.768,24,24,24s24-10.768,24-24c0-10.416-6.712-19.216-16-22.528V56h192v9.472c-9.288,3.312-16,12.112-16,22.528
			c0,13.232,10.768,24,24,24s24-10.768,24-24c0-10.416-6.712-19.216-16-22.528V56h32l0.008,440H112z"/>
	</g>
</g>
<g>
	<g>
		<rect x="160" y="424" width="48" height="16"/>
	</g>
</g>
<g>
	<g>
		<rect x="224" y="424" width="128" height="16"/>
	</g>
</g>
<g>
	<g>
		<rect x="160" y="392" width="112" height="16"/>
	</g>
</g>
<g>
	<g>
		<rect x="288" y="392" width="64" height="16"/>
	</g>
</g>
<g>
	<g>
		<rect x="344" y="464" width="40" height="16"/>
	</g>
</g>
<g>
	<g>
		<rect x="128" y="464" width="40" height="16"/>
	</g>
</g>
<g>
	<g>
		<path d="M366.928,268l-80-138.56c-2.856-4.952-11-4.952-13.856,0l-37.688,65.288C229.2,192.992,222.72,192,216,192
			c-39.696,0-72,32.304-72,72s32.304,72,72,72c34.192,0,62.84-23.984,70.144-56H360c2.856,0,5.504-1.52,6.928-4
			C368.352,273.52,368.36,270.48,366.928,268z M271.504,271.008c0,0.008,0,0.024,0,0.032C268.024,298.6,244.488,320,216,320
			c-30.88,0-56-25.12-56-56s25.12-56,56-56c7.144,0,13.944,1.392,20.232,3.84c2.608,1.016,5.096,2.208,7.464,3.552
			c0.264,0.152,0.512,0.312,0.768,0.464c1.92,1.128,3.728,2.376,5.472,3.704c0.472,0.36,0.968,0.696,1.432,1.072
			c1.672,1.352,3.224,2.824,4.712,4.344c0.76,0.784,1.488,1.592,2.2,2.416c0.832,0.96,1.616,1.96,2.384,2.968
			c0.976,1.296,1.904,2.632,2.768,4.016c0.768,1.224,1.504,2.456,2.176,3.736c0.504,0.96,0.96,1.936,1.408,2.92
			c0.688,1.536,1.312,3.104,1.864,4.704c0.272,0.792,0.552,1.584,0.792,2.392c0.6,2.04,1.072,4.12,1.44,6.24
			c0.12,0.688,0.224,1.392,0.32,2.088C271.76,258.936,272,261.44,272,264C272,266.376,271.8,268.704,271.504,271.008z M288,264
			c0-2.984-0.24-5.904-0.592-8.792c-0.12-0.984-0.288-1.952-0.448-2.92c-0.312-1.88-0.688-3.736-1.144-5.568
			c-0.272-1.128-0.536-2.256-0.864-3.36c-0.528-1.752-1.152-3.448-1.808-5.144c-0.824-2.16-1.768-4.248-2.792-6.312
			c-0.472-0.944-0.928-1.904-1.44-2.824c-0.848-1.528-1.752-3-2.712-4.456c-0.48-0.736-0.984-1.44-1.496-2.152
			c-3.176-4.48-6.84-8.576-11-12.24c-1.152-1.024-2.328-2.016-3.544-2.96c-0.888-0.688-1.768-1.368-2.696-2.016
			c-2.28-1.616-4.632-3.144-7.104-4.496L280,149.44L346.144,264H288z"/>
	</g>
</g>
<g>
</g>
<g>
</g>
<g>
</g>
<g>
</g>
<g>
</g>
<g>
</g>
<g>
</g>
<g>
</g>
<g>
</g>
<g>
</g>
<g>
</g>
<g>
</g>
<g>
</g>
<g>
</g>
<g>
</g>
</svg>
