<?xml version="1.0" encoding="iso-8859-1"?>
<!-- Generator: Adobe Illustrator 19.0.0, SVG Export Plug-In . SVG Version: 6.00 Build 0)  -->
<svg version="1.1" id="Capa_1" xmlns="http://www.w3.org/2000/svg" xmlns:xlink="http://www.w3.org/1999/xlink" x="0px" y="0px"
	 viewBox="0 0 512.464 512.464" style="enable-background:new 0 0 512.464 512.464;" xml:space="preserve">
<g>
	<g>
		<rect x="264.232" y="80" width="56" height="16"/>
	</g>
</g>
<g>
	<g>
		<rect x="336.232" y="80" width="120" height="16"/>
	</g>
</g>
<g>
	<g>
		<rect x="264.232" y="120" width="88" height="16"/>
	</g>
</g>
<g>
	<g>
		<rect x="368.232" y="120" width="72" height="16"/>
	</g>
</g>
<g>
	<g>
		<path d="M496.232,0h-272c-8.824,0-16,7.176-16,16v176c0,8.824,7.176,16,16,16h16v32c0,4.424,3.576,8,8,8h24
			c2.432,0,4.728-1.104,6.248-3l29.592-37h188.16c8.824,0,16-7.176,16-16V16C512.232,7.176,505.056,0,496.232,0z M496.232,192h-192
			c-2.432,0-4.728,1.104-6.248,3l-29.592,37h-12.16v-32c0-4.424-3.576-8-8-8h-24V16h272V192z"/>
	</g>
</g>
<g>
	<g>
		<path d="M248.232,32c-4.424,0-8,3.576-8,8v32h16V48h24V32H248.232z"/>
	</g>
</g>
<g>
	<g>
		<path d="M464.232,136v24h-24v16h32c4.424,0,8-3.576,8-8v-32H464.232z"/>
	</g>
</g>
<g>
	<g>
		<path d="M232.28,320.28l-50.4-22.08l-17.768-23.696c11.96-6.92,20.12-19.712,20.12-34.504v-72c0-22.056-17.944-40-40-40h-32
			c-22.056,0-40,17.944-40,40v72c0,14.792,8.16,27.584,20.128,34.504l-17.672,23.568L25.352,317.84
			c-15.264,6.112-25.12,20.688-25.12,37.128V504c0,4.416,3.568,7.992,7.984,8l240,0.464c0.008,0,0.008,0,0.016,0
			c2.12,0,4.152-0.84,5.648-2.336c1.512-1.504,2.352-3.544,2.352-5.664V356.92C256.232,341.032,246.824,326.648,232.28,320.28z
			 M174.264,340.832l-26.72-7.624l22.896-15.264L174.264,340.832z M88.232,240v-72c0-13.232,10.768-24,24-24h32
			c13.232,0,24,10.768,24,24v24h-24c-13.232,0-24-10.768-24-24v-8h-16v8c0,22.056,17.944,40,40,40h24v32c0,13.232-10.768,24-24,24
			h-32C99,264,88.232,253.232,88.232,240z M108.512,279.624c1.24,0.12,2.448,0.376,3.72,0.376h32c1.272,0,2.48-0.256,3.72-0.376
			l16.8,22.408l-36.52,24.352l-36.52-24.352L108.512,279.624z M86.024,317.936L108.92,333.2l-26.72,7.624L86.024,317.936z
			 M240.232,496.448l-32-0.064V400h-16v96.352l-128-0.248V400h-16v96.08l-32-0.064V354.968c0-9.856,5.912-18.608,15.072-22.28
			l38.616-15.472l-5.576,33.472c-0.456,2.704,0.512,5.456,2.56,7.28c1.488,1.328,3.392,2.032,5.328,2.032
			c0.736,0,1.48-0.104,2.192-0.304l53.472-15.28c0.224,0.008,0.44,0.008,0.656,0l53.472,15.28c0.728,0.2,1.472,0.304,2.208,0.304
			c1.936,0,3.84-0.704,5.328-2.032c2.048-1.832,3.016-4.576,2.56-7.28l-5.488-32.936l39.224,17.184
			c8.736,3.824,14.376,12.456,14.376,21.984V496.448z"/>
	</g>
</g>
<g>
	<g>
		<rect x="120.232" y="360" width="16" height="56"/>
	</g>
</g>
<g>
</g>
<g>
</g>
<g>
</g>
<g>
</g>
<g>
</g>
<g>
</g>
<g>
</g>
<g>
</g>
<g>
</g>
<g>
</g>
<g>
</g>
<g>
</g>
<g>
</g>
<g>
</g>
<g>
</g>
</svg>
