<?xml version="1.0" encoding="iso-8859-1"?>
<!-- Generator: Adobe Illustrator 19.0.0, SVG Export Plug-In . SVG Version: 6.00 Build 0)  -->
<svg version="1.1" id="Capa_1" xmlns="http://www.w3.org/2000/svg" xmlns:xlink="http://www.w3.org/1999/xlink" x="0px" y="0px"
	 viewBox="0 0 512 512" style="enable-background:new 0 0 512 512;" xml:space="preserve">
<g>
	<g>
		<path d="M368,344v152H144V280h-16v216c0,8.824,7.176,16,16,16h224c8.824,0,16-7.176,16-16V344H368z"/>
	</g>
</g>
<g>
	<g>
		<path d="M368,0H144c-8.824,0-16,7.176-16,16v72h16V16h224v136h16V16C384,7.176,376.824,0,368,0z"/>
	</g>
</g>
<g>
	<g>
		<rect x="216" y="64" width="80" height="16"/>
	</g>
</g>
<g>
	<g>
		<path d="M256,416c-17.648,0-32,14.352-32,32s14.352,32,32,32s32-14.352,32-32S273.648,416,256,416z M256,464
			c-8.824,0-16-7.176-16-16c0-8.824,7.176-16,16-16c8.824,0,16,7.176,16,16C272,456.824,264.824,464,256,464z"/>
	</g>
</g>
<g>
	<g>
		<rect x="224" y="32" width="64" height="16"/>
	</g>
</g>
<g>
	<g>
		<path d="M344,64h-32v16h24v72h16V72C352,67.584,348.416,64,344,64z"/>
	</g>
</g>
<g>
	<g>
		<rect x="216" y="384" width="80" height="16"/>
	</g>
</g>
<g>
	<g>
		<path d="M336,352v32h-24v16h32c4.416,0,8-3.584,8-8v-40H336z"/>
	</g>
</g>
<g>
	<g>
		<path d="M168,64c-4.416,0-8,3.584-8,8v24h16V80h24V64H168z"/>
	</g>
</g>
<g>
	<g>
		<path d="M176,384v-96h-16v104c0,4.416,3.584,8,8,8h32v-16H176z"/>
	</g>
</g>
<g>
	<g>
		<path d="M344,248v-16h-16v-24h-16v58.344c0,5.784,2.256,11.224,6.344,15.312c4.088,4.088,9.528,6.344,15.312,6.344H344v-16
			h-10.344c-1.512,0-2.928-0.592-4-1.656c-1.064-1.072-1.656-2.488-1.656-4V248H344z"/>
	</g>
</g>
<g>
	<g>
		<rect x="368" y="208" width="112" height="16"/>
	</g>
</g>
<g>
	<g>
		<rect x="448" y="240" width="32" height="16"/>
	</g>
</g>
<g>
	<g>
		<rect x="368" y="240" width="64" height="16"/>
	</g>
</g>
<g>
	<g>
		<rect x="400" y="272" width="80" height="16"/>
	</g>
</g>
<g>
	<g>
		<rect x="368" y="272" width="16" height="16"/>
	</g>
</g>
<g>
	<g>
		<path d="M496,168H288c-8.824,0-16,7.176-16,16v176c0,4.416,3.584,8,8,8h30.32c2.736,0,5.28-1.4,6.752-3.704L340.168,328H496
			c8.824,0,16-7.176,16-16V184C512,175.176,504.824,168,496,168z M496,312H335.776c-2.736,0-5.28,1.4-6.752,3.704L305.928,352H288
			V184h208V312z"/>
	</g>
</g>
<g>
	<g>
		<path d="M57.656,153.656c1.072-1.064,2.488-1.656,4-1.656H72v-16H61.656c-5.784,0-11.224,2.256-15.312,6.344
			S40,151.872,40,157.656V168h-8v16h8v40h16v-40h16v-16H56v-10.344C56,156.144,56.592,154.728,57.656,153.656z"/>
	</g>
</g>
<g>
	<g>
		<rect x="96" y="208" width="112" height="16"/>
	</g>
</g>
<g>
	<g>
		<rect x="176" y="176" width="32" height="16"/>
	</g>
</g>
<g>
	<g>
		<rect x="96" y="176" width="64" height="16"/>
	</g>
</g>
<g>
	<g>
		<rect x="128" y="144" width="80" height="16"/>
	</g>
</g>
<g>
	<g>
		<rect x="96" y="144" width="16" height="16"/>
	</g>
</g>
<g>
	<g>
		<path d="M224,104H16c-8.824,0-16,7.176-16,16v128c0,8.824,7.176,16,16,16h155.832l23.104,36.296
			C196.4,302.6,198.952,304,201.68,304H232c4.416,0,8-3.584,8-8V184v-16v-48C240,111.176,232.824,104,224,104z M224,168v16v104
			h-17.928l-23.096-36.296c-1.472-2.304-4.016-3.704-6.752-3.704H16l-0.008-128H224V168z"/>
	</g>
</g>
<g>
</g>
<g>
</g>
<g>
</g>
<g>
</g>
<g>
</g>
<g>
</g>
<g>
</g>
<g>
</g>
<g>
</g>
<g>
</g>
<g>
</g>
<g>
</g>
<g>
</g>
<g>
</g>
<g>
</g>
</svg>
