{"asset":{"version":"2.0","generator":"GLTFExporter"},"scenes":[{"name":"AuxScene","nodes":[23]}],"scene":0,"nodes":[{"name":"inner","mesh":0},{"name":"outer","mesh":1},{"matrix":[0.9923513487783087,-0.01202892774955695,0.12285807045150701,0,-8.673617379884035e-19,0.9952410880738825,0.09744319683546136,0,-0.12344553688923518,-0.0966978878089403,0.9876288361097089,0,0,0,0,1],"name":"head","children":[0,1]},{"name":"inner","mesh":2},{"matrix":[1,0,0,0,0,1,0,0,0,0,1,0,0,-10,0,1],"name":"body","children":[3]},{"matrix":[4,0,0,0,0,12,0,0,0,0,4,0,0,0,0,1],"name":"inner","mesh":3},{"matrix":[4.5,0,0,0,0,13.5,0,0,0,0,4.5,0,0,0,0,1],"name":"outer","mesh":4},{"matrix":[1,0,0,0,0,1,0,0,0,0,1,0,0,-6,0,1],"children":[5,6]},{"matrix":[0.9993476842376693,-0.035182053738112805,-0.008150405117303472,0,0.036113792501032395,0.9735644332813609,0.22553954917205735,0,-8.673617379884035e-19,-0.2256867682083091,0.9741999192443453,0,-6,-4,0,1],"name":"rightArm","children":[7]},{"matrix":[4,0,0,0,0,12,0,0,0,0,4,0,0,0,0,1],"name":"inner","mesh":5},{"matrix":[4.5,0,0,0,0,13.5,0,0,0,0,4.5,0,0,0,0,1],"name":"outer","mesh":6},{"matrix":[1,0,0,0,0,1,0,0,0,0,1,0,0,-6,0,1],"children":[9,10]},{"matrix":[0.9993476842376693,0.035182053738112735,-0.008150405117303517,0,-0.03611379250103234,0.9735644332813606,-0.22553954917205893,0,8.673617379884035e-19,0.22568676820831068,0.9741999192443449,0,6,-4,0,1],"name":"leftArm","children":[11]},{"name":"inner","mesh":7},{"name":"outer","mesh":8},{"matrix":[1,0,0,0,0,1,0,0,0,0,1,0,0,-6,0,1],"children":[13,14]},{"matrix":[1,0,0,0,0,0.9741999192443449,-0.2256867682083107,0,0,0.2256867682083107,0.9741999192443449,0,-2,-16,0,1],"name":"rightLeg","children":[15]},{"name":"inner","mesh":9},{"name":"outer","mesh":10},{"matrix":[1,0,0,0,0,1,0,0,0,0,1,0,0,-6,0,1],"children":[17,18]},{"matrix":[1,0,0,0,0,0.9741999192443453,0.22568676820830913,0,0,-0.22568676820830913,0.9741999192443453,0,2,-16,0,1],"name":"leftLeg","children":[19]},{"name":"skin","children":[2,4,8,12,16,20]},{"name":"player","children":[21]},{"children":[22]}],"bufferViews":[{"buffer":0,"byteOffset":0,"byteLength":432,"target":34962,"byteStride":12},{"buffer":0,"byteOffset":432,"byteLength":432,"target":34962,"byteStride":12},{"buffer":0,"byteOffset":864,"byteLength":432,"target":34962,"byteStride":12},{"buffer":0,"byteOffset":1296,"byteLength":288,"target":34962,"byteStride":8},{"buffer":0,"byteOffset":1584,"byteLength":432,"target":34962,"byteStride":12},{"buffer":0,"byteOffset":2016,"byteLength":432,"target":34962,"byteStride":12},{"buffer":0,"byteOffset":2448,"byteLength":432,"target":34962,"byteStride":12},{"buffer":0,"byteOffset":2880,"byteLength":288,"target":34962,"byteStride":8},{"buffer":0,"byteOffset":3168,"byteLength":432,"target":34962,"byteStride":12},{"buffer":0,"byteOffset":3600,"byteLength":432,"target":34962,"byteStride":12},{"buffer":0,"byteOffset":4032,"byteLength":432,"target":34962,"byteStride":12},{"buffer":0,"byteOffset":4464,"byteLength":288,"target":34962,"byteStride":8},{"buffer":0,"byteOffset":4752,"byteLength":432,"target":34962,"byteStride":12},{"buffer":0,"byteOffset":5184,"byteLength":432,"target":34962,"byteStride":12},{"buffer":0,"byteOffset":5616,"byteLength":432,"target":34962,"byteStride":12},{"buffer":0,"byteOffset":6048,"byteLength":288,"target":34962,"byteStride":8},{"buffer":0,"byteOffset":6336,"byteLength":432,"target":34962,"byteStride":12},{"buffer":0,"byteOffset":6768,"byteLength":432,"target":34962,"byteStride":12},{"buffer":0,"byteOffset":7200,"byteLength":432,"target":34962,"byteStride":12},{"buffer":0,"byteOffset":7632,"byteLength":288,"target":34962,"byteStride":8},{"buffer":0,"byteOffset":7920,"byteLength":432,"target":34962,"byteStride":12},{"buffer":0,"byteOffset":8352,"byteLength":432,"target":34962,"byteStride":12},{"buffer":0,"byteOffset":8784,"byteLength":432,"target":34962,"byteStride":12},{"buffer":0,"byteOffset":9216,"byteLength":288,"target":34962,"byteStride":8},{"buffer":0,"byteOffset":9504,"byteLength":432,"target":34962,"byteStride":12},{"buffer":0,"byteOffset":9936,"byteLength":432,"target":34962,"byteStride":12},{"buffer":0,"byteOffset":10368,"byteLength":432,"target":34962,"byteStride":12},{"buffer":0,"byteOffset":10800,"byteLength":288,"target":34962,"byteStride":8},{"buffer":0,"byteOffset":11088,"byteLength":432,"target":34962,"byteStride":12},{"buffer":0,"byteOffset":11520,"byteLength":432,"target":34962,"byteStride":12},{"buffer":0,"byteOffset":11952,"byteLength":432,"target":34962,"byteStride":12},{"buffer":0,"byteOffset":12384,"byteLength":288,"target":34962,"byteStride":8},{"buffer":0,"byteOffset":12672,"byteLength":432,"target":34962,"byteStride":12},{"buffer":0,"byteOffset":13104,"byteLength":432,"target":34962,"byteStride":12},{"buffer":0,"byteOffset":13536,"byteLength":432,"target":34962,"byteStride":12},{"buffer":0,"byteOffset":13968,"byteLength":288,"target":34962,"byteStride":8},{"buffer":0,"byteOffset":14256,"byteLength":432,"target":34962,"byteStride":12},{"buffer":0,"byteOffset":14688,"byteLength":432,"target":34962,"byteStride":12},{"buffer":0,"byteOffset":15120,"byteLength":432,"target":34962,"byteStride":12},{"buffer":0,"byteOffset":15552,"byteLength":288,"target":34962,"byteStride":8},{"buffer":0,"byteOffset":15840,"byteLength":432,"target":34962,"byteStride":12},{"buffer":0,"byteOffset":16272,"byteLength":432,"target":34962,"byteStride":12},{"buffer":0,"byteOffset":16704,"byteLength":432,"target":34962,"byteStride":12},{"buffer":0,"byteOffset":17136,"byteLength":288,"target":34962,"byteStride":8}],"buffers":[{"byteLength":17424,"uri":"data:application/octet-stream;base64,"}],"accessors":[{"bufferView":0,"componentType":5126,"count":36,"max":[4,4,4],"min":[-4,-4,-4],"type":"VEC3"},{"bufferView":1,"componentType":5126,"count":36,"max":[1,1,1],"min":[-1,-1,-1],"type":"VEC3"},{"bufferView":2,"componentType":5126,"count":36,"max":[1,1,1],"min":[1,1,1],"type":"VEC3"},{"bufferView":3,"componentType":5126,"count":36,"max":[0.5,1],"min":[0,0.75],"type":"VEC2"},{"bufferView":4,"componentType":5126,"count":36,"max":[4.5,4.5,4.5],"min":[-4.5,-4.5,-4.5],"type":"VEC3"},{"bufferView":5,"componentType":5126,"count":36,"max":[1,1,1],"min":[-1,-1,-1],"type":"VEC3"},{"bufferView":6,"componentType":5126,"count":36,"max":[1,1,1],"min":[1,1,1],"type":"VEC3"},{"bufferView":7,"componentType":5126,"count":36,"max":[1,1],"min":[0.5,0.75],"type":"VEC2"},{"bufferView":8,"componentType":5126,"count":36,"max":[4,6,2],"min":[-4,-6,-2],"type":"VEC3"},{"bufferView":9,"componentType":5126,"count":36,"max":[1,1,1],"min":[-1,-1,-1],"type":"VEC3"},{"bufferView":10,"componentType":5126,"count":36,"max":[1,1,1],"min":[1,1,1],"type":"VEC3"},{"bufferView":11,"componentType":5126,"count":36,"max":[0.625,0.75],"min":[0.25,0.5],"type":"VEC2"},{"bufferView":12,"componentType":5126,"count":36,"max":[0.5,0.5,0.5],"min":[-0.5,-0.5,-0.5],"type":"VEC3"},{"bufferView":13,"componentType":5126,"count":36,"max":[1,1,1],"min":[-1,-1,-1],"type":"VEC3"},{"bufferView":14,"componentType":5126,"count":36,"max":[1,1,1],"min":[1,1,1],"type":"VEC3"},{"bufferView":15,"componentType":5126,"count":36,"max":[0.875,0.75],"min":[0.625,0.5],"type":"VEC2"},{"bufferView":16,"componentType":5126,"count":36,"max":[0.5,0.5,0.5],"min":[-0.5,-0.5,-0.5],"type":"VEC3"},{"bufferView":17,"componentType":5126,"count":36,"max":[1,1,1],"min":[-1,-1,-1],"type":"VEC3"},{"bufferView":18,"componentType":5126,"count":36,"max":[1,1,1],"min":[1,1,1],"type":"VEC3"},{"bufferView":19,"componentType":5126,"count":36,"max":[0.875,0.5],"min":[0.625,0.25],"type":"VEC2"},{"bufferView":20,"componentType":5126,"count":36,"max":[0.5,0.5,0.5],"min":[-0.5,-0.5,-0.5],"type":"VEC3"},{"bufferView":21,"componentType":5126,"count":36,"max":[1,1,1],"min":[-1,-1,-1],"type":"VEC3"},{"bufferView":22,"componentType":5126,"count":36,"max":[1,1,1],"min":[1,1,1],"type":"VEC3"},{"bufferView":23,"componentType":5126,"count":36,"max":[0.75,0.25],"min":[0.5,0],"type":"VEC2"},{"bufferView":24,"componentType":5126,"count":36,"max":[0.5,0.5,0.5],"min":[-0.5,-0.5,-0.5],"type":"VEC3"},{"bufferView":25,"componentType":5126,"count":36,"max":[1,1,1],"min":[-1,-1,-1],"type":"VEC3"},{"bufferView":26,"componentType":5126,"count":36,"max":[1,1,1],"min":[1,1,1],"type":"VEC3"},{"bufferView":27,"componentType":5126,"count":36,"max":[1,0.25],"min":[0.75,0],"type":"VEC2"},{"bufferView":28,"componentType":5126,"count":36,"max":[2,6,2],"min":[-2,-6,-2],"type":"VEC3"},{"bufferView":29,"componentType":5126,"count":36,"max":[1,1,1],"min":[-1,-1,-1],"type":"VEC3"},{"bufferView":30,"componentType":5126,"count":36,"max":[1,1,1],"min":[1,1,1],"type":"VEC3"},{"bufferView":31,"componentType":5126,"count":36,"max":[0.25,0.75],"min":[0,0.5],"type":"VEC2"},{"bufferView":32,"componentType":5126,"count":36,"max":[2.25,6.75,2.25],"min":[-2.25,-6.75,-2.25],"type":"VEC3"},{"bufferView":33,"componentType":5126,"count":36,"max":[1,1,1],"min":[-1,-1,-1],"type":"VEC3"},{"bufferView":34,"componentType":5126,"count":36,"max":[1,1,1],"min":[1,1,1],"type":"VEC3"},{"bufferView":35,"componentType":5126,"count":36,"max":[0.25,0.5],"min":[0,0.25],"type":"VEC2"},{"bufferView":36,"componentType":5126,"count":36,"max":[2,6,2],"min":[-2,-6,-2],"type":"VEC3"},{"bufferView":37,"componentType":5126,"count":36,"max":[1,1,1],"min":[-1,-1,-1],"type":"VEC3"},{"bufferView":38,"componentType":5126,"count":36,"max":[1,1,1],"min":[1,1,1],"type":"VEC3"},{"bufferView":39,"componentType":5126,"count":36,"max":[0.5,0.25],"min":[0.25,0],"type":"VEC2"},{"bufferView":40,"componentType":5126,"count":36,"max":[2.25,6.75,2.25],"min":[-2.25,-6.75,-2.25],"type":"VEC3"},{"bufferView":41,"componentType":5126,"count":36,"max":[1,1,1],"min":[-1,-1,-1],"type":"VEC3"},{"bufferView":42,"componentType":5126,"count":36,"max":[1,1,1],"min":[1,1,1],"type":"VEC3"},{"bufferView":43,"componentType":5126,"count":36,"max":[0.25,0.25],"min":[0,0],"type":"VEC2"}],"materials":[{"pbrMetallicRoughness":{"metallicFactor":0,"roughnessFactor":0.9,"baseColorTexture":{"index":0}},"extensions":{"KHR_materials_unlit":{}}},{"pbrMetallicRoughness":{"metallicFactor":0,"roughnessFactor":0.9,"baseColorTexture":{"index":0}},"extensions":{"KHR_materials_unlit":{}},"alphaMode":"BLEND","doubleSided":true},{"pbrMetallicRoughness":{"metallicFactor":0,"roughnessFactor":0.9,"baseColorTexture":{"index":0}},"extensions":{"KHR_materials_unlit":{}}}],"textures":[{"sampler":0,"source":0}],"samplers":[{"magFilter":9728,"minFilter":9728,"wrapS":33071,"wrapT":33071}],"images":[{"mimeType":"image/png","uri":"data:image/png;base64,"}],"meshes":[{"primitives":[{"mode":4,"attributes":{"POSITION":0,"NORMAL":1,"COLOR_0":2,"TEXCOORD_0":3},"material":0}]},{"primitives":[{"mode":4,"attributes":{"POSITION":4,"NORMAL":5,"COLOR_0":6,"TEXCOORD_0":7},"material":1}]},{"primitives":[{"mode":4,"attributes":{"POSITION":8,"NORMAL":9,"COLOR_0":10,"TEXCOORD_0":11},"material":2}]},{"primitives":[{"mode":4,"attributes":{"POSITION":12,"NORMAL":13,"COLOR_0":14,"TEXCOORD_0":15},"material":0}]},{"primitives":[{"mode":4,"attributes":{"POSITION":16,"NORMAL":17,"COLOR_0":18,"TEXCOORD_0":19},"material":1}]},{"primitives":[{"mode":4,"attributes":{"POSITION":20,"NORMAL":21,"COLOR_0":22,"TEXCOORD_0":23},"material":0}]},{"primitives":[{"mode":4,"attributes":{"POSITION":24,"NORMAL":25,"COLOR_0":26,"TEXCOORD_0":27},"material":1}]},{"primitives":[{"mode":4,"attributes":{"POSITION":28,"NORMAL":29,"COLOR_0":30,"TEXCOORD_0":31},"material":0}]},{"primitives":[{"mode":4,"attributes":{"POSITION":32,"NORMAL":33,"COLOR_0":34,"TEXCOORD_0":35},"material":1}]},{"primitives":[{"mode":4,"attributes":{"POSITION":36,"NORMAL":37,"COLOR_0":38,"TEXCOORD_0":39},"material":0}]},{"primitives":[{"mode":4,"attributes":{"POSITION":40,"NORMAL":41,"COLOR_0":42,"TEXCOORD_0":43},"material":1}]}],"extensionsUsed":["KHR_materials_unlit"]}