{
  "accessors": [
    {
      "bufferView": 2,
      "componentType": 5126,
      "count": 1036,
      "max": [
        0.12233400344848633,
        0.042075000703334808,
        0.20543600618839264
      ],
      "min": [
        -0.12233400344848633,
        -0.34062498807907104,
        -0.18790000677108765
      ],
      "type": "VEC3"
    },
    {
      "bufferView": 2,
      "byteOffset": 12432,
      "componentType": 5126,
      "count": 1036,
      "max": [
        1,
        0.9952511191368103,
        0.99992215633392334
      ],
      "min": [
        -1,
        -0.9992024302482605,
        -0.9998924732208252
      ],
      "type": "VEC3"
    },
    {
      "bufferView": 3,
      "componentType": 5126,
      "count": 1036,
      "max": [
        0.99464941024780273,
        0.99992215633392334,
        0.99920248985290527,
        1
      ],
      "min": [
        -0.99464935064315796,
        -0.99989253282546997,
        -0.99525117874145508,
        -1
      ],
      "type": "VEC4"
    },
    {
      "bufferView": 1,
      "componentType": 5126,
      "count": 1036,
      "max": [
        0.99033200740814209,
        0.97835701704025269
      ],
      "min": [
        0.0099390000104904175,
        0.014910000376403332
      ],
      "type": "VEC2"
    },
    {
      "bufferView": 0,
      "componentType": 5125,
      "count": 4014,
      "max": [
        1035
      ],
      "min": [
        0
      ],
      "type": "SCALAR"
    }
  ],
  "asset": {
    "extras": {
      "author": "Choges Craft Channel (https://sketchfab.com/sergish1)",
      "license": "CC-BY-4.0 (http://creativecommons.org/licenses/by/4.0/)",
      "source": "https://sketchfab.com/models/fee4c26f7566428587ee36143df07747",
      "title": "Weimar helmet"
    },
    "generator": "Sketchfab-3.20.1",
    "version": "2.0"
  },
  "bufferViews": [
    {
      "buffer": 0,
      "byteLength": 16056,
      "byteOffset": 0,
      "name": "floatBufferViews",
      "target": 34963
    },
    {
      "buffer": 0,
      "byteLength": 8288,
      "byteOffset": 16056,
      "byteStride": 8,
      "name": "floatBufferViews",
      "target": 34962
    },
    {
      "buffer": 0,
      "byteLength": 24864,
      "byteOffset": 24344,
      "byteStride": 12,
      "name": "floatBufferViews",
      "target": 34962
    },
    {
      "buffer": 0,
      "byteLength": 16576,
      "byteOffset": 49208,
      "byteStride": 16,
      "name": "floatBufferViews",
      "target": 34962
    }
  ],
  "buffers": [
    {
      "byteLength": 65784,
      "uri": "scene.bin"
    }
  ],
  "images": [
    {
      "uri": "textures/weimarhelmet_baseColor.jpeg"
    },
    {
      "uri": "textures/weimarhelmet_metallicRoughness.png"
    }
  ],
  "materials": [
    {
      "doubleSided": true,
      "emissiveFactor": [
        0,
        0,
        0
      ],
      "name": "weimarhelmet",
      "pbrMetallicRoughness": {
        "baseColorFactor": [
          1,
          1,
          1,
          1
        ],
        "baseColorTexture": {
          "index": 0,
          "texCoord": 0
        },
        "metallicFactor": 1,
        "metallicRoughnessTexture": {
          "index": 1,
          "texCoord": 0
        },
        "roughnessFactor": 0.31535823169999999
      }
    }
  ],
  "meshes": [
    {
      "primitives": [
        {
          "attributes": {
            "NORMAL": 1,
            "POSITION": 0,
            "TANGENT": 2,
            "TEXCOORD_0": 3
          },
          "indices": 4,
          "material": 0,
          "mode": 4
        }
      ]
    }
  ],
  "nodes": [
    {
      "children": [
        1
      ],
      "name": "RootNode (gltf orientation matrix)",
      "rotation": [
        -0.70710678118654746,
        -0,
        -0,
        0.70710678118654757
      ]
    },
    {
      "children": [
        2
      ],
      "matrix": [
        -0.00029998150421306491,
        0.99999994039535522,
        1.313499979005428e-06,
        0,
        -0.0043785553425550461,
        0,
        -0.99999040365219116,
        0,
        -0.99999034404754639,
        -0.00029998438549228013,
        0.0043785548768937588,
        0,
        0.0081137903034687042,
        -0.14927287399768829,
        -0.14054496586322784,
        1
      ],
      "name": "RootNode (model correction matrix)"
    },
    {
      "children": [
        3
      ],
      "name": "weimarhelmet.obj.cleaner.materialmerger.gles"
    },
    {
      "mesh": 0,
      "name": ""
    }
  ],
  "samplers": [
    {
      "magFilter": 9729,
      "minFilter": 9987,
      "wrapS": 10497,
      "wrapT": 10497
    }
  ],
  "scene": 0,
  "scenes": [
    {
      "name": "OSG_Scene",
      "nodes": [
        0
      ]
    }
  ],
  "textures": [
    {
      "sampler": 0,
      "source": 0
    },
    {
      "sampler": 0,
      "source": 1
    }
  ]
}

